# xmcd
#
# Track frame offsets:
#	150
#	15854
#	31774
#	58317
#	70199
#	84285
#	97525
#	110676
#	127330
#	140081
#
# Disc length: 2118 seconds
#
# Revision: 0
# Processed by: cddbd v1.4PL0 Copyright (c) Steve Scherf et al.
# Submitted via: dBpowerAMP V4.0
#
DISCID=7e08440a
DTITLE=Juan Gabriel - Siempre En Mi Mente
DYEAR=1900
DGENRE=Romanticas
TTITLE0=Simpre En Mi Mente
TTITLE1=Maria Jose
TTITLE2=Extrano Tus Ojos
TTITLE3=Canta,Vive Y Suna
TTITLE4=Lagrimas Tristas
TTITLE5=Denme Un Ride
TTITLE6=Adios Carinos
TTITLE7=Mi Oracion
TTITLE8=Como Me Hace Falta Tu
TTITLE9=Adios
EXTD=Compact Disc Digital Audio,             RCA             MBG U.S. Latin
EXTT0=
EXTT1=
EXTT2=
EXTT3=
EXTT4=
EXTT5=
EXTT6=
EXTT7=
EXTT8=
EXTT9=
PLAYORDER=
